<svg width="54" height="54" viewBox="0 0 54 54" fill="none" xmlns="http://www.w3.org/2000/svg">
    <circle cx="27" cy="27" r="27" fill="#00AEEF"/>
    <path d="M17.4667 25.3165C16.7441 25.3165 16.1583 25.9023 16.1583 26.6249C16.1583 27.3475 16.7441 27.9332 17.4667 27.9332H25.3167V35.7832C25.3167 36.5058 25.9024 37.0915 26.625 37.0915C27.3476 37.0915 27.9333 36.5058 27.9333 35.7832V27.9332H35.7833C36.5059 27.9332 37.0917 27.3475 37.0917 26.6249C37.0917 25.9023 36.5059 25.3165 35.7833 25.3165H27.9333V17.4665C27.9333 16.7439 27.3476 16.1582 26.625 16.1582C25.9024 16.1582 25.3167 16.7439 25.3167 17.4665V25.3165H17.4667Z" fill="#FAFAFA"/>
</svg>
