<svg width="27" height="13" viewBox="0 0 27 13" fill="none" xmlns="http://www.w3.org/2000/svg">
    <path d="M0.307635 7.2421C0.30795 7.24241 0.308213 7.24278 0.308579 7.24309L5.78661 12.6947C6.19701 13.1031 6.86079 13.1016 7.2693 12.6911C7.67775 12.2808 7.67617 11.617 7.26578 11.2085L3.58783 7.54839L25.7905 7.54839C26.3695 7.54839 26.8389 7.07902 26.8389 6.5C26.8389 5.92098 26.3695 5.45161 25.7905 5.45161L3.58788 5.45161L7.26573 1.79148C7.67612 1.38303 7.6777 0.719241 7.26924 0.30885C6.86074 -0.101646 6.1969 -0.103061 5.78656 0.305286L0.308528 5.7569C0.308213 5.75722 0.30795 5.75758 0.307583 5.7579C-0.103019 6.16771 -0.101707 6.83365 0.307635 7.2421Z" fill="white"/>
</svg>
