<svg width="25" height="25" viewBox="0 0 25 25" fill="none" xmlns="http://www.w3.org/2000/svg">
    <path d="M10.9086 20.2518H2.73673C2.30124 20.2518 1.88358 20.0788 1.57564 19.7709C1.26769 19.4629 1.09469 19.0453 1.09469 18.6098V7.11551H19.1571V10.5747C19.1571 10.7199 19.2148 10.8591 19.3174 10.9618C19.4201 11.0644 19.5593 11.1221 19.7045 11.1221C19.8496 11.1221 19.9889 11.0644 20.0915 10.9618C20.1942 10.8591 20.2518 10.7199 20.2518 10.5747V4.37877C20.251 3.65321 19.9623 2.95762 19.4493 2.44457C18.9362 1.93152 18.2407 1.64291 17.5151 1.64204H16.4204C16.4204 1.20654 16.2474 0.788885 15.9395 0.480942C15.6315 0.173 15.2139 0 14.7784 0C14.3429 0 13.9252 0.173 13.6173 0.480942C13.3093 0.788885 13.1363 1.20654 13.1363 1.64204H7.11551C7.11551 1.20654 6.94251 0.788885 6.63456 0.480942C6.32662 0.173 5.90896 0 5.47347 0C5.03797 0 4.62031 0.173 4.31237 0.480942C4.00443 0.788885 3.83143 1.20654 3.83143 1.64204H2.73673C2.01117 1.64291 1.31558 1.93152 0.802531 2.44457C0.289482 2.95762 0.000869109 3.65321 0 4.37877V18.6098C0.000869109 19.3353 0.289482 20.0309 0.802531 20.544C1.31558 21.057 2.01117 21.3456 2.73673 21.3465H10.9086C11.0538 21.3465 11.193 21.2889 11.2957 21.1862C11.3983 21.0836 11.456 20.9443 11.456 20.7992C11.456 20.654 11.3983 20.5148 11.2957 20.4121C11.193 20.3095 11.0538 20.2518 10.9086 20.2518ZM14.231 1.64204C14.231 1.49687 14.2887 1.35765 14.3913 1.25501C14.494 1.15236 14.6332 1.09469 14.7784 1.09469C14.9235 1.09469 15.0627 1.15236 15.1654 1.25501C15.268 1.35765 15.3257 1.49687 15.3257 1.64204V2.73673C15.3257 2.8819 15.268 3.02112 15.1654 3.12377C15.0627 3.22641 14.9235 3.28408 14.7784 3.28408C14.6332 3.28408 14.494 3.22641 14.3913 3.12377C14.2887 3.02112 14.231 2.8819 14.231 2.73673V1.64204ZM4.92612 1.64204C4.92612 1.49687 4.98379 1.35765 5.08643 1.25501C5.18908 1.15236 5.3283 1.09469 5.47347 1.09469C5.61863 1.09469 5.75785 1.15236 5.8605 1.25501C5.96315 1.35765 6.02081 1.49687 6.02081 1.64204V2.73673C6.02081 2.8819 5.96315 3.02112 5.8605 3.12377C5.75785 3.22641 5.61863 3.28408 5.47347 3.28408C5.3283 3.28408 5.18908 3.22641 5.08643 3.12377C4.98379 3.02112 4.92612 2.8819 4.92612 2.73673V1.64204ZM1.09469 4.37877C1.09469 3.94328 1.26769 3.52562 1.57564 3.21768C1.88358 2.90973 2.30124 2.73673 2.73673 2.73673H3.83143C3.83143 3.17223 4.00443 3.58989 4.31237 3.89783C4.62031 4.20577 5.03797 4.37877 5.47347 4.37877C5.90896 4.37877 6.32662 4.20577 6.63456 3.89783C6.94251 3.58989 7.11551 3.17223 7.11551 2.73673H13.1363C13.1363 3.17223 13.3093 3.58989 13.6173 3.89783C13.9252 4.20577 14.3429 4.37877 14.7784 4.37877C15.2139 4.37877 15.6315 4.20577 15.9395 3.89783C16.2474 3.58989 16.4204 3.17223 16.4204 2.73673H17.5151C17.9506 2.73673 18.3682 2.90973 18.6762 3.21768C18.9841 3.52562 19.1571 3.94328 19.1571 4.37877V6.02081H1.09469V4.37877Z" fill="#A0A0A0"/>
    <path d="M6.56812 9.85226C6.56812 9.56193 6.45279 9.28349 6.24749 9.0782C6.0422 8.8729 5.76376 8.75757 5.47343 8.75757H3.83139C3.54106 8.75757 3.26262 8.8729 3.05732 9.0782C2.85203 9.28349 2.73669 9.56193 2.73669 9.85226V11.4943C2.73669 11.7846 2.85203 12.0631 3.05732 12.2684C3.26262 12.4737 3.54106 12.589 3.83139 12.589H5.47343C5.76376 12.589 6.0422 12.4737 6.24749 12.2684C6.45279 12.0631 6.56812 11.7846 6.56812 11.4943V9.85226ZM3.83139 11.4943V9.85226H5.47343V11.4943H3.83139Z" fill="#A0A0A0"/>
    <path d="M12.0416 9.85226C12.0416 9.56193 11.9263 9.28349 11.721 9.0782C11.5157 8.8729 11.2373 8.75757 10.9469 8.75757H9.3049C9.01457 8.75757 8.73613 8.8729 8.53083 9.0782C8.32554 9.28349 8.21021 9.56193 8.21021 9.85226V11.4943C8.21021 11.7846 8.32554 12.0631 8.53083 12.2684C8.73613 12.4737 9.01457 12.589 9.3049 12.589H10.9469C11.2373 12.589 11.5157 12.4737 11.721 12.2684C11.9263 12.0631 12.0416 11.7846 12.0416 11.4943V9.85226ZM9.3049 11.4943V9.85226H10.9469V11.4943H9.3049Z" fill="#A0A0A0"/>
    <path d="M16.9678 11.0236C17.113 11.0236 17.2522 10.9659 17.3548 10.8633C17.4575 10.7606 17.5151 10.6214 17.5151 10.4762V9.85226C17.5151 9.56193 17.3998 9.28349 17.1945 9.0782C16.9892 8.8729 16.7108 8.75757 16.4204 8.75757H14.7784C14.4881 8.75757 14.2096 8.8729 14.0043 9.0782C13.799 9.28349 13.6837 9.56193 13.6837 9.85226V11.4286C13.6837 11.5738 13.7414 11.713 13.844 11.8157C13.9467 11.9183 14.0859 11.976 14.2311 11.976C14.3762 11.976 14.5154 11.9183 14.6181 11.8157C14.7207 11.713 14.7784 11.5738 14.7784 11.4286V9.85226H16.4204V10.4762C16.4204 10.6214 16.4781 10.7606 16.5808 10.8633C16.6834 10.9659 16.8226 11.0236 16.9678 11.0236Z" fill="#A0A0A0"/>
    <path d="M5.47343 14.231H3.83139C3.54106 14.231 3.26262 14.3463 3.05732 14.5516C2.85203 14.7569 2.73669 15.0353 2.73669 15.3257V16.9677C2.73669 17.258 2.85203 17.5365 3.05732 17.7418C3.26262 17.9471 3.54106 18.0624 3.83139 18.0624H5.47343C5.76376 18.0624 6.0422 17.9471 6.24749 17.7418C6.45279 17.5365 6.56812 17.258 6.56812 16.9677V15.3257C6.56812 15.0353 6.45279 14.7569 6.24749 14.5516C6.0422 14.3463 5.76376 14.231 5.47343 14.231ZM3.83139 16.9677V15.3257H5.47343V16.9677H3.83139Z" fill="#A0A0A0"/>
    <path d="M11.3246 14.3027C11.2044 14.2549 11.0762 14.2306 10.9469 14.231H9.3049C9.01457 14.231 8.73613 14.3463 8.53083 14.5516C8.32554 14.7569 8.21021 15.0353 8.21021 15.3257V16.9677C8.21021 17.258 8.32554 17.5365 8.53083 17.7418C8.73613 17.9471 9.01457 18.0624 9.3049 18.0624H10.4215C10.5667 18.0624 10.7059 18.0047 10.8085 17.9021C10.9112 17.7994 10.9688 17.6602 10.9688 17.515C10.9688 17.3699 10.9112 17.2307 10.8085 17.128C10.7059 17.0254 10.5667 16.9677 10.4215 16.9677H9.3049V15.3257L10.9196 15.3196C11.0542 15.372 11.204 15.3691 11.3365 15.3115C11.4689 15.2539 11.5732 15.1463 11.6267 15.0121C11.6801 14.8779 11.6784 14.7281 11.6218 14.5952C11.5652 14.4623 11.4584 14.3571 11.3246 14.3027Z" fill="#A0A0A0"/>
    <path d="M18.0624 12.0415C16.8716 12.0415 15.7076 12.3946 14.7175 13.0562C13.7273 13.7178 12.9556 14.6581 12.4999 15.7583C12.0442 16.8584 11.925 18.069 12.1573 19.2369C12.3896 20.4048 12.9631 21.4776 13.8051 22.3197C14.6471 23.1617 15.7199 23.7351 16.8878 23.9674C18.0558 24.1998 19.2663 24.0805 20.3665 23.6248C21.4667 23.1691 22.407 22.3974 23.0686 21.4073C23.7301 20.4172 24.0833 19.2531 24.0833 18.0623C24.0814 16.4661 23.4464 14.9358 22.3177 13.807C21.189 12.6783 19.6587 12.0434 18.0624 12.0415ZM18.0624 22.9884C17.0881 22.9884 16.1357 22.6995 15.3256 22.1582C14.5155 21.6169 13.8841 20.8476 13.5113 19.9475C13.1385 19.0473 13.0409 18.0569 13.231 17.1013C13.4211 16.1457 13.8902 15.268 14.5791 14.579C15.2681 13.8901 16.1458 13.4209 17.1014 13.2309C18.057 13.0408 19.0475 13.1383 19.9476 13.5112C20.8477 13.884 21.6171 14.5154 22.1584 15.3255C22.6996 16.1356 22.9886 17.088 22.9886 18.0623C22.9871 19.3684 22.4676 20.6205 21.5441 21.544C20.6206 22.4675 19.3685 22.987 18.0624 22.9884Z" fill="#A0A0A0"/>
    <path d="M18.6097 17.8358V15.3257C18.6097 15.1805 18.552 15.0413 18.4494 14.9386C18.3467 14.836 18.2075 14.7783 18.0624 14.7783C17.9172 14.7783 17.778 14.836 17.6753 14.9386C17.5727 15.0413 17.515 15.1805 17.515 15.3257V18.0624C17.515 18.2076 17.5727 18.3468 17.6754 18.4494L18.7701 19.5441C18.8733 19.6438 19.0116 19.6989 19.1551 19.6977C19.2986 19.6964 19.4359 19.6389 19.5374 19.5374C19.6388 19.4359 19.6964 19.2986 19.6977 19.1551C19.6989 19.0116 19.6437 18.8733 19.544 18.7701L18.6097 17.8358Z" fill="#A0A0A0"/>
</svg>
