<svg xmlns="http://www.w3.org/2000/svg" viewBox="0 0 256.001 256.001" id="chats"><rect width="256" height="256" fill="none"></rect><path d="M80.00049,144.00048v40a8,8,0,0,0,8,8h96.41709l39.58291,32v-128a8,8,0,0,0-8-8h-40v48a8,8,0,0,1-8,8Z" opacity=".2"></path><path fill="none" stroke="#000" stroke-linecap="round" stroke-linejoin="round" stroke-width="16" d="M71.5834,144.00049l-39.58291,32v-128a8,8,0,0,1,8-8h128a8,8,0,0,1,8,8v88a8,8,0,0,1-8,8Z"></path><path fill="none" stroke="#000" stroke-linecap="round" stroke-linejoin="round" stroke-width="16" d="M80.00049,144.00048v40a8,8,0,0,0,8,8h96.41709l39.58291,32v-128a8,8,0,0,0-8-8h-40"></path></svg>