<svg width="19" height="10" viewBox="0 0 19 10" fill="none" xmlns="http://www.w3.org/2000/svg">
    <path d="M18.8744 4.46906L14.5563 0.150945C14.4012 -0.0301827 14.1286 -0.0512975 13.9475 0.103854C13.7664 0.258968 13.7453 0.531569 13.9004 0.712697C13.9149 0.729581 13.9306 0.745352 13.9475 0.759787L17.5272 4.34382H0.431797C0.193336 4.34382 0 4.53716 0 4.77565C0 5.01415 0.193336 5.20745 0.431797 5.20745H17.5272L13.9475 8.78714C13.7664 8.94226 13.7453 9.21486 13.9004 9.39599C14.0556 9.57712 14.3281 9.59823 14.5092 9.44308C14.5261 9.42861 14.5419 9.41287 14.5563 9.39599L18.8745 5.07787C19.0419 4.90951 19.0419 4.6375 18.8744 4.46906Z" fill="#8D8D8D"/>
</svg>
