<svg width="22" height="20" viewBox="0 0 22 20" fill="none" xmlns="http://www.w3.org/2000/svg">
    <path fill-rule="evenodd" clip-rule="evenodd" d="M15.8133 4.27758V2.37603C15.8133 1.61922 15.2116 1 14.4763 1H7.52373C6.78834 1 6.18672 1.61922 6.18672 2.37603V4.27758" fill="#00AEEF"/>
    <path fill-rule="evenodd" clip-rule="evenodd" d="M1.82987 10.427V17.7189C1.82987 18.4234 2.39017 19 3.07469 19H18.9253C19.6098 19 20.1701 18.4235 20.1701 17.7189V10.4698" fill="#00AEEF"/>
    <path fill-rule="evenodd" clip-rule="evenodd" d="M12.6598 12.5836C17.0493 12.3253 21 11.0335 21 8.70806V5.67616C21 4.97055 20.4408 4.39502 19.7552 4.39502H2.24481C1.55921 4.39502 1 4.97059 1 5.67616V8.70806C1 11.048 5.00058 12.3415 9.42324 12.5884" fill="#00AEEF"/>
    <path fill-rule="evenodd" clip-rule="evenodd" d="M12.5353 11.3132H9.46473V12.7865C9.46473 13.5968 10.1089 14.2598 10.8963 14.2598H11.1037C11.8911 14.2598 12.5353 13.5968 12.5353 12.7865V11.3132Z" fill="#00AEEF"/>
    <path d="M15.8133 4.27758V2.37603C15.8133 1.61922 15.2116 1 14.4763 1H7.52373C6.78834 1 6.18672 1.61922 6.18672 2.37603V4.27758M1.82987 10.427V17.7189C1.82987 18.4234 2.39017 19 3.07469 19H18.9253C19.6098 19 20.1701 18.4235 20.1701 17.7189V10.4698M12.6598 12.5836C17.0493 12.3253 21 11.0335 21 8.70806V5.67616C21 4.97055 20.4408 4.39502 19.7552 4.39502H2.24481C1.55921 4.39502 0.999999 4.97059 0.999999 5.67616V8.70806C0.999999 11.048 5.00058 12.3415 9.42324 12.5884M12.5353 11.3132H9.46473V12.7865C9.46473 13.5968 10.1089 14.2598 10.8963 14.2598H11.1037C11.8911 14.2598 12.5353 13.5968 12.5353 12.7865V11.3132Z" stroke="#D9EAF0" stroke-width="0.5" stroke-miterlimit="22.9256" stroke-linecap="round" stroke-linejoin="round"/>
</svg>
