<svg width="22" height="20" viewBox="0 0 22 20" fill="none" xmlns="http://www.w3.org/2000/svg">
    <path fill-rule="evenodd" clip-rule="evenodd" d="M14.4763 1.25C15.0668 1.25 15.5633 1.75046 15.5633 2.37603V4.14502H6.43672V2.37603C6.43672 1.75046 6.93315 1.25 7.52373 1.25H14.4763ZM5.93672 4.14502V2.37603C5.93672 1.48798 6.64353 0.75 7.52373 0.75H14.4763C15.3564 0.75 16.0633 1.48797 16.0633 2.37603V4.14502H19.7552C20.5856 4.14502 21.25 4.83931 21.25 5.67616V8.70806C21.25 9.40472 20.9397 10.0015 20.4201 10.5057V17.7189C20.4201 18.5547 19.7546 19.25 18.9253 19.25H3.07469C2.24537 19.25 1.57987 18.5546 1.57987 17.7189V10.5057C1.06026 10.0015 0.75 9.40469 0.75 8.70806V5.67616C0.75 4.83935 1.4144 4.14502 2.24481 4.14502H5.93672ZM2.07987 10.9195C2.47632 11.2026 2.94367 11.4501 3.45701 11.6639C4.99955 12.3063 7.05863 12.6908 9.21518 12.8265C9.23604 13.7501 9.97735 14.5098 10.8963 14.5098H11.1037C12.0226 14.5098 12.764 13.7501 12.7848 12.8265C14.955 12.69 17.0269 12.3014 18.5729 11.6515C19.0744 11.4406 19.5313 11.1972 19.9201 10.9195V17.7189C19.9201 18.2922 19.465 18.75 18.9253 18.75H3.07469C2.53497 18.75 2.07987 18.2921 2.07987 17.7189V10.9195ZM12.7853 12.3254V11.3132C12.7853 11.1751 12.6733 11.0632 12.5353 11.0632H9.46473C9.32666 11.0632 9.21473 11.1751 9.21473 11.3132V12.3254C7.10156 12.19 5.11509 11.8128 3.64923 11.2023C2.11141 10.5619 1.25 9.71332 1.25 8.70806V5.67616C1.25 5.10183 1.70402 4.64502 2.24481 4.64502H19.7552C20.296 4.64502 20.75 5.10179 20.75 5.67616V8.70806C20.75 9.70701 19.8996 10.5513 18.3791 11.1905C16.9108 11.8079 14.9124 12.1892 12.7853 12.3254ZM12.2853 11.5632V12.7865C12.2853 13.4656 11.7463 14.0098 11.1037 14.0098H10.8963C10.2537 14.0098 9.71473 13.4656 9.71473 12.7865V11.5632H12.2853Z" fill="#D9EAF0" stroke="#707070" stroke-miterlimit="22.9256" stroke-linecap="round" stroke-linejoin="round"/>
</svg>
