<svg width="18" height="24" viewBox="0 0 18 24" fill="none" xmlns="http://www.w3.org/2000/svg">
    <path d="M8.86571 0C3.97705 0 0 3.97705 0 8.86571C0 10.4751 0.721773 12.206 0.752021 12.279C0.985137 12.8323 1.44511 13.6918 1.77679 14.1956L7.85554 23.406C8.1043 23.7836 8.47249 24 8.86571 24C9.25893 24 9.62712 23.7836 9.87588 23.4065L15.9551 14.1956C16.2874 13.6918 16.7468 12.8323 16.9799 12.279C17.0102 12.2065 17.7314 10.4756 17.7314 8.86571C17.7314 3.97705 13.7544 0 8.86571 0ZM16.0183 11.8743C15.8102 12.3703 15.382 13.1698 15.0842 13.6214L9.00495 22.8323C8.88501 23.0143 8.84694 23.0143 8.72699 22.8323L2.64772 13.6214C2.34993 13.1698 1.92177 12.3698 1.71369 11.8738C1.70482 11.8524 1.04302 10.2592 1.04302 8.86571C1.04302 4.55228 4.55228 1.04302 8.86571 1.04302C13.1791 1.04302 16.6884 4.55228 16.6884 8.86571C16.6884 10.2613 16.025 11.8587 16.0183 11.8743Z" fill="#A0A0A0"/>
    <path d="M8.86585 4.17261C6.27759 4.17261 4.17224 6.27847 4.17224 8.86622C4.17224 11.454 6.27759 13.5598 8.86585 13.5598C11.4541 13.5598 13.5595 11.454 13.5595 8.86622C13.5595 6.27847 11.4541 4.17261 8.86585 4.17261ZM8.86585 12.5168C6.85334 12.5168 5.21527 10.8793 5.21527 8.86622C5.21527 6.85318 6.85334 5.21563 8.86585 5.21563C10.8784 5.21563 12.5164 6.85318 12.5164 8.86622C12.5164 10.8793 10.8784 12.5168 8.86585 12.5168Z" fill="#A0A0A0"/>
</svg>
