<svg width="19" height="26" viewBox="0 0 19 26" fill="none" xmlns="http://www.w3.org/2000/svg">
    <path d="M9.49999 0C14.7384 0 19 4.26159 19 9.50001C19 11.2245 18.2266 13.0793 18.1942 13.1575C17.9444 13.7504 17.4515 14.6714 17.0961 15.2112L10.5824 25.0806C10.3159 25.4852 9.92134 25.7171 9.49999 25.7171C9.07864 25.7171 8.68411 25.4852 8.41755 25.0811L1.90334 15.2112C1.54737 14.6714 1.05504 13.7504 0.805248 13.1575C0.772837 13.0798 -1.90735e-05 11.2251 -1.90735e-05 9.50001C-1.71661e-05 4.26159 4.26157 0 9.49999 0ZM1.83572 12.7239C2.05869 13.2553 2.51748 14.112 2.83657 14.5959L9.35079 24.4659C9.47931 24.6609 9.52011 24.6609 9.64864 24.4659L16.1629 14.5959C16.4819 14.112 16.9407 13.2547 17.1637 12.7233C17.1732 12.7004 17.8824 10.9932 17.8824 9.50001C17.8824 4.87798 14.122 1.11765 9.49999 1.11765C4.87796 1.11765 1.11763 4.87798 1.11763 9.50001C1.11763 10.9954 1.82845 12.7071 1.83572 12.7239Z" fill="#662D91"/>
    <path d="M9.49997 4.47119C12.2734 4.47119 14.5294 6.72772 14.5294 9.50061C14.5294 12.2735 12.2734 14.53 9.49997 14.53C6.72653 14.53 4.47056 12.2735 4.47056 9.50061C4.47056 6.72772 6.72653 4.47119 9.49997 4.47119ZM9.49997 13.4124C11.6565 13.4124 13.4117 11.6577 13.4117 9.50061C13.4117 7.34355 11.6565 5.58884 9.49997 5.58884C7.34347 5.58884 5.5882 7.34355 5.5882 9.50061C5.5882 11.6577 7.34347 13.4124 9.49997 13.4124Z" fill="#662D91"/>
</svg>
