<svg width="28" height="28" viewBox="0 0 28 28" fill="none" xmlns="http://www.w3.org/2000/svg">
    <g clip-path="url(#clip0_64_1925)">
        <path d="M13.9999 0C6.26796 0 0 6.26796 0 13.9999C0 21.7319 6.26796 28.0001 13.9999 28.0001C21.7319 28.0001 28.0001 21.7319 28.0001 13.9999C27.9914 6.27154 21.7285 0.00871579 13.9999 0ZM13.9999 26.5999C7.0411 26.5999 1.39991 20.9587 1.39991 13.9999C1.39991 7.0411 7.0411 1.39991 13.9999 1.39991C20.9587 1.39991 26.5999 7.0411 26.5999 13.9999C26.592 20.9554 20.9554 26.592 13.9999 26.5999Z" fill="#C8C8C8"/>
        <path d="M12.3608 8.57298C12.0696 8.31842 11.6274 8.34816 11.3729 8.63911C11.1186 8.93033 11.1483 9.37252 11.4393 9.62708L16.437 13.9999L11.439 18.3729C11.1478 18.6274 11.1183 19.0696 11.3726 19.3606C11.6272 19.6518 12.0694 19.6815 12.3606 19.427L17.9605 14.5269C18.1125 14.3941 18.1997 14.2019 18.1997 13.9999C18.1997 13.7979 18.1125 13.6058 17.9605 13.4728L12.3608 8.57298Z" fill="#C8C8C8"/>
    </g>
    <defs>
        <clipPath id="clip0_64_1925">
            <rect width="28" height="28" fill="white"/>
        </clipPath>
    </defs>
</svg>
