<svg width="24" height="27" viewBox="0 0 24 27" fill="none" xmlns="http://www.w3.org/2000/svg">
    <path d="M21.2381 20.1429H23.5238V22.4286H0.666687L0.666687 20.1429H2.9524L2.9524 12.1429C2.9524 9.71802 3.91566 7.3925 5.63028 5.67788C7.3449 3.96326 9.67042 3 12.0953 3C14.5201 3 16.8456 3.96326 18.5602 5.67788C20.2749 7.3925 21.2381 9.71802 21.2381 12.1429V20.1429ZM18.9524 20.1429V12.1429C18.9524 10.3242 18.23 8.58009 16.944 7.29413C15.658 6.00816 13.9139 5.28571 12.0953 5.28571C10.2766 5.28571 8.53249 6.00816 7.24653 7.29413C5.96056 8.58009 5.23812 10.3242 5.23812 12.1429V20.1429H18.9524ZM8.66669 24.7143H15.5238V27H8.66669L8.66669 24.7143Z" fill="white"/>
    <circle cx="18.8333" cy="4.5" r="4.5" fill="#00AEEF"/>
</svg>
