<svg width="25" height="25" viewBox="0 0 25 25" fill="none" xmlns="http://www.w3.org/2000/svg">
    <path d="M24 12.5C24 18.8513 18.8512 24 12.5 24C6.14861 24 1 18.8513 1 12.5C1 6.14861 6.14861 1 12.5 1C18.8512 1 24 6.14861 24 12.5Z" stroke="#858585" stroke-width="1.5" stroke-miterlimit="10" stroke-linecap="round" stroke-linejoin="round"/>
    <path d="M17.1 10.9667C17.1 13.5071 15.0405 15.5667 12.5 15.5667C9.95926 15.5667 7.8999 13.5071 7.8999 10.9667C7.8999 8.4262 9.95926 6.3667 12.5 6.3667C15.0405 6.3667 17.1 8.4262 17.1 10.9667Z" stroke="#858585" stroke-width="1.5" stroke-miterlimit="10" stroke-linecap="round" stroke-linejoin="round"/>
    <path d="M5.63879 21.7296C6.0067 18.2652 8.9381 15.5665 12.5 15.5665C16.062 15.5665 18.9933 18.2654 19.3611 21.7297" stroke="#858585" stroke-width="1.5" stroke-miterlimit="10" stroke-linecap="round" stroke-linejoin="round"/>
</svg>
