<svg width="25" height="25" viewBox="0 0 25 25" fill="none" xmlns="http://www.w3.org/2000/svg">
    <path d="M17.7399 21.458V23.1216C17.7399 23.7309 17.246 24.2249 16.6366 24.2249H2.10354C1.49418 24.2249 1.00024 23.7309 1.00024 23.1216V6.36598L6.36627 0.999947H16.6366C17.246 0.999947 17.7399 1.49389 17.7399 2.10325V7.3174" stroke="#A0A0A0" stroke-miterlimit="10" stroke-linecap="round" stroke-linejoin="round"/>
    <path d="M6.36617 1.00004L1 6.36621H5.39867C5.93298 6.36621 6.36617 5.93302 6.36617 5.39871V1.00004Z" stroke="#A0A0A0" stroke-miterlimit="10" stroke-linecap="round" stroke-linejoin="round"/>
    <path d="M6.93921 7.33936H11.8005" stroke="#A0A0A0" stroke-miterlimit="10" stroke-linecap="round" stroke-linejoin="round"/>
    <path d="M13.7473 11.0461H3.46521" stroke="#A0A0A0" stroke-miterlimit="10" stroke-linecap="round" stroke-linejoin="round"/>
    <path d="M11.5972 13.9148H3.46521" stroke="#A0A0A0" stroke-miterlimit="10" stroke-linecap="round" stroke-linejoin="round"/>
    <path d="M12.5795 16.7839H3.46521" stroke="#A0A0A0" stroke-miterlimit="10" stroke-linecap="round" stroke-linejoin="round"/>
    <path d="M14.7463 19.6528H3.46521" stroke="#A0A0A0" stroke-miterlimit="10" stroke-linecap="round" stroke-linejoin="round"/>
    <path d="M16.3651 12.213V12.7127C16.3651 13.4718 16.9805 14.0872 17.7395 14.0872C18.4986 14.0872 19.1139 13.4718 19.1139 12.7127V12.213C19.1139 11.454 18.4986 10.8386 17.7395 10.8386C16.9805 10.8386 16.3651 11.454 16.3651 12.213Z" stroke="#A0A0A0" stroke-miterlimit="10" stroke-linecap="round" stroke-linejoin="round"/>
    <path d="M19.8222 14.9612C19.6596 14.7051 19.3196 14.6261 19.0642 14.7897C18.6814 15.035 18.2269 15.1774 17.7395 15.1774C17.2521 15.1774 16.7976 15.035 16.4148 14.7897C16.1594 14.6261 15.8195 14.7051 15.6569 14.9612C15.4149 15.3424 15.2747 15.7943 15.2747 16.2793V17.344C15.2747 17.6643 15.5342 17.9238 15.8544 17.9238H19.6246C19.9448 17.9238 20.2044 17.6643 20.2044 17.344V16.2793C20.2044 15.7943 20.0641 15.3424 19.8222 14.9612Z" stroke="#A0A0A0" stroke-miterlimit="10" stroke-linecap="round" stroke-linejoin="round"/>
    <path d="M17.7396 15.1775C17.3152 15.1775 16.9159 15.0694 16.567 14.8796L17.5035 16.4223C17.6111 16.5995 17.8681 16.5995 17.9756 16.4223L18.9121 14.8796C18.5633 15.0694 18.1639 15.1775 17.7396 15.1775Z" stroke="#A0A0A0" stroke-miterlimit="10" stroke-linecap="round" stroke-linejoin="round"/>
    <path d="M23.3223 15.8531C23.6662 14.9863 23.8972 14.0696 23.996 13.1321C24.029 12.8195 23.8519 12.5229 23.5628 12.3996C22.2677 11.847 21.2581 10.7559 20.8137 9.4076C20.7288 9.15007 20.5126 8.95642 20.2447 8.91441C19.4284 8.78627 18.5919 8.71908 17.7396 8.71908C16.8872 8.71908 16.0507 8.78627 15.2344 8.91441C14.9665 8.95642 14.7503 9.15007 14.6654 9.4076C14.221 10.7559 13.2114 11.847 11.9164 12.3996C11.6273 12.5229 11.4501 12.8195 11.483 13.1321C11.8661 16.7649 14.2328 20.0842 17.4703 21.405C17.6427 21.4753 17.8364 21.4753 18.0088 21.405C19.9908 20.5964 21.6464 19.0388 22.7204 17.1188" stroke="#A0A0A0" stroke-miterlimit="10" stroke-linecap="round" stroke-linejoin="round"/>
</svg>
