<svg width="41" height="41" viewBox="0 0 41 41" fill="none" xmlns="http://www.w3.org/2000/svg">
    <path d="M20.5002 41C31.8219 41 41 31.8219 41 20.5002C41 9.17838 31.8219 -6.18375e-05 20.5002 -6.28273e-05C9.17838 -6.38171e-05 -5.82532e-05 9.17838 -5.9243e-05 20.5002C0.0126999 31.8167 9.18326 40.9872 20.5002 41ZM20.5002 2.05018C30.6898 2.05019 38.9501 10.3105 38.9501 20.5002C38.9501 30.6898 30.6898 38.9501 20.5002 38.9501C10.3105 38.9501 2.05019 30.6898 2.05019 20.5002C2.06182 10.3154 10.3154 2.06182 20.5002 2.05018Z" fill="#C8C8C8"/>
    <path d="M22.9003 28.4467C23.3267 28.8194 23.9742 28.7759 24.347 28.3499C24.7193 27.9234 24.6758 27.2759 24.2497 26.9032L16.9316 20.5002L24.2501 14.0969C24.6765 13.7241 24.7197 13.0766 24.3473 12.6506C23.9746 12.2242 23.3271 12.1806 22.9007 12.5533L14.7008 19.7285C14.4782 19.9229 14.3506 20.2044 14.3506 20.5002C14.3506 20.796 14.4782 21.0771 14.7008 21.272L22.9003 28.4467Z" fill="#C8C8C8"/>
</svg>
