<svg width="21" height="21" viewBox="0 0 21 21" fill="none" xmlns="http://www.w3.org/2000/svg">
    <path d="M10.5 21C16.289 21 21 16.289 21 10.5C21 4.71101 16.289 0 10.5 0C4.71095 0 0 4.71101 0 10.5C0 16.289 4.71101 21 10.5 21ZM10.5 1.39998C15.519 1.39998 19.6 5.48096 19.6 10.5C19.6 15.519 15.519 19.6 10.5 19.6C5.48096 19.6 1.39998 15.519 1.39998 10.5C1.39998 5.48096 5.48102 1.39998 10.5 1.39998Z" fill="#A0A0A0"/>
    <path d="M13.5624 13.8462C13.6919 13.9512 13.8459 14.0002 13.9999 14.0002C14.2064 14.0002 14.4094 13.9092 14.5459 13.7377C14.7874 13.4367 14.7384 12.9957 14.4374 12.7542L11.1999 10.1642V4.90018C11.1999 4.51518 10.8849 4.2002 10.4999 4.2002C10.1149 4.2002 9.79993 4.51518 9.79993 4.90018V10.5002C9.79993 10.7137 9.89795 10.9132 10.0624 11.0462L13.5624 13.8462Z" fill="#A0A0A0"/>
</svg>
