<svg width="87" height="36" viewBox="0 0 87 36" fill="none" xmlns="http://www.w3.org/2000/svg">
    <g clip-path="url(#clip0_57_1876)">
        <path fill-rule="evenodd" clip-rule="evenodd" d="M83.2048 11.7486L82.8439 11.2892L83.2667 9.65804C83.3131 9.47221 83.442 9.26057 83.2667 9.14185C82.2732 9.41715 81.4345 10.1828 80.7504 11.4389L82.6067 11.8828L83.2048 11.7486ZM85.9635 9.95743C85.8759 9.83871 85.7934 9.83355 85.716 9.95743L85.2004 12.0738L83.6792 12.4558L79.7861 11.5938C79.4767 14.278 79.3169 15.6201 79.3169 15.6201L77.5585 18.0565C78.1319 18.7524 78.6249 19.5108 79.0281 20.3175L81.4413 16.9777L86.3709 14.2109C87.3369 13.089 87.2011 11.6712 85.9635 9.95743ZM82.617 14.1283L82.4726 14.6858C82.429 14.8441 82.3254 14.9791 82.1838 15.062C82.0422 15.145 81.8738 15.1693 81.7146 15.1297L80.5389 14.82C80.38 14.7775 80.2443 14.674 80.1613 14.5319C80.0782 14.3898 80.0546 14.2206 80.0955 14.0612L80.2399 13.5089C80.2823 13.3498 80.3857 13.2139 80.5276 13.1308C80.6696 13.0476 80.8386 13.024 80.9979 13.0649L82.1736 13.3695C82.3317 13.4131 82.4666 13.5169 82.5494 13.6586C82.6323 13.8004 82.6565 13.9689 82.617 14.1283ZM81.9621 13.6482L81.0288 13.4056C80.9263 13.3788 80.8173 13.3935 80.7255 13.4467C80.6338 13.4999 80.5668 13.5871 80.5389 13.6895L80.4461 14.0509C80.421 14.1535 80.4372 14.2619 80.4913 14.3527C80.5453 14.4434 80.6328 14.5093 80.7349 14.5361L81.6682 14.7839C81.719 14.797 81.7719 14.7999 81.8238 14.7925C81.8758 14.785 81.9257 14.7674 81.9708 14.7405C82.0158 14.7136 82.0552 14.6781 82.0864 14.6359C82.1177 14.5937 82.1403 14.5458 82.1529 14.4948L82.2509 14.1386C82.2746 14.0347 82.2572 13.9256 82.2024 13.8342C82.1477 13.7428 82.0597 13.6762 81.957 13.6482H81.9621Z" fill="white"/>
        <path d="M5.41946 19.3729H0V17.2358H13.3759V19.3729H7.95129V34.2238H5.41946V19.3729Z" fill="white"/>
        <path d="M30.186 25.6393C30.186 30.3263 27.5304 34.4662 22.1522 34.4662C17.0937 34.4662 14.3092 30.5999 14.3092 25.7322C14.3092 20.8645 17.1968 16.9775 22.3585 16.9775C27.1695 16.9775 30.186 20.5909 30.186 25.6393ZM16.9339 25.6393C16.9339 29.2526 18.7335 32.3498 22.2605 32.3498C26.0711 32.3498 27.5614 29.1959 27.5614 25.6806C27.5614 22.1653 25.87 19.1197 22.2502 19.1197C18.6303 19.1197 16.9339 22.093 16.9339 25.6548V25.6393Z" fill="white"/>
        <path d="M39.7512 26.873V29.0307H33.2592V26.873H39.7512Z" fill="white"/>
        <path d="M43.139 17.3647H49.8167C54.7205 17.3647 57.9278 20.5961 57.9278 25.5826C57.9278 30.569 54.8339 34.2237 49.6774 34.2237H43.139V17.3647ZM46.7795 31.302H49.5124C52.7404 31.302 54.1533 28.9017 54.1533 25.6239C54.1533 22.8674 52.8177 20.338 49.5124 20.338H46.7589L46.7795 31.302Z" fill="white"/>
        <path d="M76.62 25.7528C76.62 30.445 73.8046 34.4817 68.3387 34.4817C63.0482 34.4817 60.2843 30.636 60.2843 25.8096C60.2843 20.9006 63.3421 17.1324 68.5708 17.1324C73.5004 17.1169 76.62 20.5909 76.62 25.7528ZM64.0434 25.7528C64.0434 29.041 65.4872 31.5342 68.4728 31.5342C71.7162 31.5342 72.8609 28.819 72.8609 25.8148C72.8609 22.6247 71.5564 20.1366 68.4161 20.1366C65.3737 20.0747 64.0434 22.4389 64.0434 25.7218V25.7528Z" fill="white"/>
        <mask id="mask0_57_1876" style="mask-type:luminance" maskUnits="userSpaceOnUse" x="59" y="16" width="19" height="19">
            <path d="M77.6255 25.6136C77.6255 20.5362 73.5139 16.4202 68.4419 16.4202C63.3699 16.4202 59.2582 20.5362 59.2582 25.6136C59.2582 30.691 63.3699 34.807 68.4419 34.807C73.5139 34.807 77.6255 30.691 77.6255 25.6136Z" fill="white"/>
        </mask>
        <g mask="url(#mask0_57_1876)">
            <path d="M82.4056 12.5796H55.3754V20.8645H82.4056V12.5796Z" fill="#6DCFF6"/>
            <path d="M82.4056 20.8645H55.3754V25.567H82.4056V20.8645Z" fill="#44C8F5"/>
            <path d="M82.4056 25.5723H55.3754V30.3213H82.4056V25.5723Z" fill="#00C0F3"/>
            <path d="M82.4056 30.3159H55.3754V35.9269H82.4056V30.3159Z" fill="#00AEEF"/>
        </g>
        <path d="M65.0902 24.6844L63.5277 26.1452L66.8485 29.6037L73.1394 23.2029L71.7368 21.7988L66.931 26.553L65.0902 24.6844Z" fill="white"/>
        <path d="M71.9276 29.4954C72.3662 29.4954 72.7217 29.1395 72.7217 28.7005C72.7217 28.2614 72.3662 27.9055 71.9276 27.9055C71.4891 27.9055 71.1335 28.2614 71.1335 28.7005C71.1335 29.1395 71.4891 29.4954 71.9276 29.4954Z" fill="white"/>
        <path fill-rule="evenodd" clip-rule="evenodd" d="M76.8882 17.2771L77.0944 17.2358L76.8933 17.0809L76.9346 16.8848L77.1769 16.8331L76.9758 16.6783L77.0171 16.4821L77.2594 16.4305L77.0583 16.2757L77.0944 16.0795L77.3419 16.0279L77.1408 15.873L77.1769 15.6769L77.4193 15.6253L77.2182 15.4704L77.2594 15.2742L77.5018 15.2226L77.3007 15.0678L77.3419 14.8716L77.5843 14.8252L77.3832 14.6651L77.4193 14.469L77.6616 14.4225L77.4657 14.2625L77.5018 14.0715L77.7441 14.0199L77.543 13.8599L77.5843 13.6689L77.8266 13.6173L77.6255 13.4572L77.6668 13.2662L77.9091 13.2146L77.708 13.0598L77.7441 12.8636L77.9865 12.812L77.7854 12.6571L77.8266 12.461L78.069 12.4094L77.8679 12.2545L77.9091 12.0583L78.1515 12.0067L77.9504 11.8519L77.9865 11.6557L78.234 11.6041L78.0329 11.4492L78.069 11.2531L78.3113 11.2015L78.1102 11.0466L78.1515 10.8505L78.3938 10.7988L78.1928 10.644L78.234 10.4478L78.4764 10.3962L78.2752 10.2413L78.3113 10.0452L78.5537 9.99874L78.3526 9.83871L78.3938 9.64256L78.6362 9.5961L78.4351 9.43608L78.4764 9.24509L78.7187 9.19347L78.5176 9.03345L78.5589 8.84246L78.8012 8.79084L78.6001 8.63598L78.6362 8.43983L78.8786 8.38821L78.6775 8.23335L78.7187 8.0372L78.9611 7.98558L78.76 7.83072L78.8012 7.63456L79.0436 7.58295L78.8425 7.42809L78.8786 7.23193L79.1209 7.18031L78.925 7.02545L78.9611 6.8293L79.2034 6.77768L79.0023 6.62282L79.0436 6.42667L79.2859 6.37505L79.0848 6.22019L79.1261 6.02404L79.3684 5.97241L79.1673 5.81756L79.2034 5.62141L79.4458 5.57495L79.2447 5.41493L79.2859 5.21877L79.5283 5.17232L79.3272 5.0123L79.3684 4.81614L79.6108 4.76969L79.4097 4.60966L79.4509 4.41867L79.6881 4.36706L79.4922 4.2122L79.2447 4.02637L76.7025 4.0625C75.6712 4.0625 75.9136 3.96958 75.5784 4.98132L72.4536 14.3967C74.1286 15.0124 75.644 15.9967 76.8882 17.2771ZM76.125 4.71291C76.1337 4.68583 76.1478 4.66078 76.1663 4.63926C76.1849 4.61774 76.2076 4.60019 76.2332 4.58766C76.2587 4.57513 76.2864 4.56789 76.3148 4.56635C76.3432 4.56481 76.3716 4.569 76.3983 4.57869C76.4254 4.58747 76.4505 4.60152 76.4722 4.62003C76.4939 4.63854 76.5117 4.66115 76.5246 4.68656C76.5376 4.71197 76.5454 4.73969 76.5476 4.76813C76.5498 4.79657 76.5464 4.82516 76.5375 4.85227C76.5188 4.90614 76.4796 4.95043 76.4284 4.97556C76.3772 5.00068 76.3183 5.00461 76.2642 4.98649C76.2371 4.97771 76.212 4.96366 76.1903 4.94515C76.1686 4.92664 76.1508 4.90403 76.1379 4.87862C76.125 4.85321 76.1172 4.82549 76.115 4.79705C76.1128 4.76861 76.1162 4.74002 76.125 4.71291Z" fill="white"/>
        <path fill-rule="evenodd" clip-rule="evenodd" d="M61.1248 8.9922L63.141 14.851C63.6907 14.5865 64.2595 14.3639 64.8426 14.1851L62.8162 8.29533C62.6511 7.32489 63.306 6.95839 63.3318 5.8589C63.3243 5.42279 63.1972 4.99713 62.9644 4.62844C62.7316 4.25975 62.402 3.96221 62.0117 3.76831L61.8416 3.80444L61.9447 4.47549L62.0427 5.07944L62.1355 5.68339L61.6714 6.06537L61.2022 6.44736L60.635 6.23055L60.0729 6.01375L59.9749 5.4098L59.8821 4.80586L59.7738 4.20707L59.5727 4.24837C58.7649 5.36679 58.6858 6.36993 59.3355 7.25778C59.8718 8.01143 60.5679 7.96497 61.1248 8.9922Z" fill="white"/>
        <path fill-rule="evenodd" clip-rule="evenodd" d="M60.3668 16.7042L56.8604 12.4611C56.8864 12.3915 56.8939 12.3164 56.8821 12.2431C56.8704 12.1698 56.8398 12.1008 56.7934 12.0429C56.7241 11.9611 56.6261 11.909 56.5196 11.8975C56.413 11.8859 56.3062 11.9158 56.221 11.981L55.9735 11.6919C55.9735 9.52391 57.6803 8.8735 59.6552 8.90964C59.7532 8.90964 59.8048 8.86834 59.8048 8.78059C59.7223 8.31601 57.3812 8.3315 56.9687 8.37279C55.6237 8.51045 54.3584 9.07681 53.3592 9.98848C53.1881 10.3421 53.0799 10.7229 53.0395 11.1138C52.7884 11.4026 52.4694 11.6244 52.1113 11.759C51.178 11.6506 50.6417 12.1668 49.9972 12.8482C49.9403 12.9205 49.9057 13.0078 49.8974 13.0994C49.8892 13.191 49.9077 13.2831 49.9507 13.3644L51.5596 15.202C51.5877 15.2417 51.6235 15.2753 51.6648 15.301C51.7061 15.3267 51.7521 15.3439 51.8001 15.3516C51.8481 15.3592 51.8971 15.3573 51.9444 15.3458C51.9916 15.3343 52.0361 15.3135 52.0752 15.2846C52.8281 14.6084 53.385 14.4536 53.4004 13.4573C53.7201 12.9411 54.0398 12.6727 54.3544 12.6417C54.4024 12.6364 54.4508 12.6364 54.4988 12.6417C54.6377 12.6588 54.7685 12.7162 54.8752 12.8069C54.932 12.8643 54.9837 12.9265 55.0299 12.9927H54.9989C54.9572 13.0276 54.9227 13.0703 54.8975 13.1185C54.8723 13.1667 54.8568 13.2194 54.852 13.2737C54.8472 13.3279 54.8532 13.3825 54.8696 13.4344C54.8859 13.4863 54.9124 13.5344 54.9474 13.576C55.0023 13.6424 55.0768 13.6896 55.1601 13.7109C55.2435 13.7322 55.3315 13.7266 55.4115 13.6948L59.021 18.0927C59.4341 17.5967 59.884 17.1325 60.3668 16.7042Z" fill="white"/>
        <path fill-rule="evenodd" clip-rule="evenodd" d="M66.864 11.8158V13.7825C67.3499 13.7227 67.8389 13.6917 68.3284 13.6895C68.7152 13.6895 69.1019 13.6895 69.4783 13.7463V11.8158L69.1122 11.0002V10.7834C69.2265 10.6568 69.3138 10.5082 69.3688 10.3466C69.4238 10.1851 69.4452 10.014 69.4319 9.84389H68.5862V3.52051L68.9214 2.75654L68.7152 0.0671754C68.6586 0.0407036 68.5971 0.0266235 68.5347 0.0258789H67.8282C67.7641 0.0260448 67.7008 0.0401348 67.6426 0.0671754L67.4106 2.60168C67.4087 2.67392 67.4265 2.74531 67.4621 2.80817L67.7818 3.54632V9.86971H66.9413C66.9256 10.0352 66.9441 10.2022 66.9955 10.3602C67.047 10.5183 67.1303 10.6641 67.2404 10.7885V10.9795C67.127 11.186 67.0032 11.4699 66.864 11.8158Z" fill="white"/>
    </g>
    <defs>
        <clipPath id="clip0_57_1876">
            <rect width="87" height="35.9271" fill="white"/>
        </clipPath>
    </defs>
</svg>
