<svg width="23" height="21" viewBox="0 0 23 21" fill="none" xmlns="http://www.w3.org/2000/svg">
    <path d="M20.9844 0H7.27304C5.65836 0 4.34495 1.31474 4.34495 2.93048V15.8284H1.14041C0.988402 15.8284 0.864868 15.952 0.864868 16.1041V18.9831C0.864868 20.0952 1.7691 21 2.88045 21H18.3392C18.99 21 19.5199 20.4702 19.5199 19.8185V16.3876C19.9066 15.616 20.2074 14.7255 20.3429 14.2972L21.8877 9.40492L22.2074 9.50648L21.5323 11.6443C21.4864 11.7895 21.5667 11.9443 21.7118 11.9903C21.7394 11.999 21.7674 12.0032 21.795 12.0032C21.9121 12.0032 22.0205 11.9278 22.0577 11.8106L22.8158 9.40998C22.8618 9.26476 22.7814 9.1099 22.6363 9.06394L22.054 8.87921L22.2354 8.30478C22.3254 8.02033 22.2988 7.71703 22.1605 7.45096C22.065 7.26715 21.924 7.1178 21.7523 7.01302L21.9539 6.39356C22.0012 6.24881 21.9217 6.09302 21.7771 6.04615C21.6324 5.99882 21.4767 6.07832 21.4299 6.22307L21.2264 6.84851C21.0294 6.83794 20.8324 6.88021 20.6519 6.97396C20.386 7.11228 20.1899 7.34527 20.1004 7.62972L19.8359 8.46746L19.5204 9.46696V5.17211H22.7245C22.8765 5.17211 23 5.04849 23 4.89639V2.01692C23 0.904832 22.0958 0 20.9844 0ZM1.41595 18.9831V16.3798H4.34495V18.9831C4.34495 19.791 3.68779 20.4486 2.88045 20.4486C2.07312 20.4486 1.41595 19.791 1.41595 18.9831ZM18.2488 17.2097C18.2143 17.1546 18.1197 16.9404 18.1721 16.3031C18.2217 15.7066 18.387 14.9323 18.6515 14.0518L19.7321 14.3932C19.4432 15.2659 19.1342 15.9947 18.832 16.5112C18.5091 17.0636 18.3089 17.1845 18.2488 17.2097ZM20.9059 7.46337C21.0414 7.39306 21.1952 7.37927 21.3389 7.42477C21.4827 7.47026 21.6012 7.56998 21.6714 7.70555C21.7417 7.84111 21.7555 7.99505 21.71 8.13889L21.5286 8.71377L20.4444 8.37096L20.6258 7.79607C20.6712 7.65178 20.7704 7.53368 20.9059 7.46337ZM20.2781 8.89621L21.3624 9.23903L19.9006 13.868L18.8164 13.5251L20.2781 8.89621ZM18.2074 13.6221C17.9576 14.4134 17.2646 16.82 17.8185 17.5558L17.6605 18.0672C17.6155 18.2129 17.6968 18.3673 17.8423 18.4119C17.8694 18.4202 17.897 18.4243 17.9241 18.4243C18.0416 18.4243 18.1505 18.3485 18.1872 18.2299L18.3333 17.7575C18.5505 17.7152 18.7649 17.5392 18.9693 17.2851V19.8185C18.9693 20.1659 18.6869 20.4486 18.3397 20.4486H4.26321C4.65264 20.0805 4.89603 19.5598 4.89603 18.9831V16.1041V2.93048C4.89603 1.61895 5.96238 0.551446 7.27304 0.551446H19.6017C19.2122 0.919537 18.9688 1.44019 18.9688 2.01692V4.89593V11.2114L18.2074 13.6221ZM22.4489 4.6202H19.5199V2.01692C19.5199 1.20905 20.1771 0.551446 20.9844 0.551446C21.7918 0.551446 22.4489 1.20905 22.4489 2.01692V4.6202ZM6.27144 13.5922C6.27144 13.4401 6.39498 13.3165 6.54698 13.3165H7.61195C7.76396 13.3165 7.88749 13.4401 7.88749 13.5922C7.88749 13.7443 7.76396 13.868 7.61195 13.868H6.54698C6.39498 13.868 6.27144 13.7443 6.27144 13.5922ZM17.587 13.5922C17.587 13.7443 17.4635 13.868 17.3115 13.868H8.8799C8.72789 13.868 8.60436 13.7443 8.60436 13.5922C8.60436 13.4401 8.72789 13.3165 8.8799 13.3165H17.3115C17.4639 13.3165 17.587 13.4397 17.587 13.5922ZM12.5253 16.2318C12.3733 16.2318 12.2498 16.1082 12.2498 15.9561C12.2498 15.804 12.3733 15.6804 12.5253 15.6804H16.731C16.883 15.6804 17.0065 15.804 17.0065 15.9561C17.0065 16.1082 16.883 16.2318 16.731 16.2318H12.5253ZM11.5329 15.9561C11.5329 16.1082 11.4094 16.2318 11.2574 16.2318H6.54698C6.39498 16.2318 6.27144 16.1082 6.27144 15.9561C6.27144 15.804 6.39498 15.6804 6.54698 15.6804H11.2574C11.4098 15.6804 11.5329 15.804 11.5329 15.9561ZM17.587 19.2979C17.587 19.45 17.4635 19.5736 17.3115 19.5736H12.3554C12.2034 19.5736 12.0798 19.45 12.0798 19.2979C12.0798 19.1458 12.2034 19.0221 12.3554 19.0221H17.3115C17.4635 19.0221 17.587 19.1453 17.587 19.2979ZM9.09344 6.94455C9.09344 6.79244 9.21698 6.66883 9.36898 6.66883H16.4568C16.6088 6.66883 16.7324 6.79244 16.7324 6.94455C16.7324 7.09666 16.6088 7.22027 16.4568 7.22027H9.36898C9.21698 7.22027 9.09344 7.09712 9.09344 6.94455ZM7.13481 6.94455C7.13481 6.79244 7.25604 6.66883 7.40805 6.66883H7.41264C7.56465 6.66883 7.68818 6.79244 7.68818 6.94455C7.68818 7.09666 7.56465 7.22027 7.41264 7.22027C7.26064 7.22027 7.13481 7.09712 7.13481 6.94455ZM9.09023 8.98674C9.09023 8.83463 9.21376 8.71102 9.36577 8.71102H16.4536C16.6056 8.71102 16.7291 8.83463 16.7291 8.98674C16.7291 9.13885 16.6056 9.26246 16.4536 9.26246H9.36577C9.21376 9.26246 9.09023 9.13885 9.09023 8.98674ZM7.1293 8.98674C7.1293 8.83463 7.25283 8.71102 7.40484 8.71102H7.41402C7.56603 8.71102 7.68956 8.83463 7.68956 8.98674C7.68956 9.13885 7.56603 9.26246 7.41402 9.26246H7.40484C7.25237 9.26246 7.1293 9.13885 7.1293 8.98674ZM9.09023 11.0289C9.09023 10.8768 9.21376 10.7532 9.36577 10.7532H16.4536C16.6056 10.7532 16.7291 10.8768 16.7291 11.0289C16.7291 11.181 16.6056 11.3047 16.4536 11.3047H9.36577C9.21376 11.3047 9.09023 11.181 9.09023 11.0289ZM7.1293 11.0289C7.1293 10.8768 7.25283 10.7532 7.40484 10.7532H7.41402C7.56603 10.7532 7.68956 10.8768 7.68956 11.0289C7.68956 11.181 7.56603 11.3047 7.41402 11.3047H7.40484C7.25237 11.3047 7.1293 11.181 7.1293 11.0289ZM9.93614 4.7861C10.0395 4.96486 10.231 5.06458 10.4362 5.04573L11.1545 4.98094L11.4576 5.63578C11.5444 5.82281 11.7262 5.93908 11.9324 5.93908C12.1386 5.93908 12.3205 5.82281 12.4073 5.63578L12.7104 4.98094L13.4286 5.04573C13.6339 5.06458 13.8259 4.96486 13.9287 4.7861C14.0316 4.60734 14.022 4.39181 13.9035 4.22316L13.4883 3.63311L13.9035 3.04307C14.022 2.87441 14.0316 2.65843 13.9287 2.48013C13.8254 2.30137 13.6339 2.20165 13.4286 2.22049L12.7104 2.28529L12.4073 1.63044C12.3205 1.44341 12.1386 1.32715 11.9324 1.32715C11.7262 1.32715 11.5444 1.44341 11.4576 1.63044L11.1545 2.28529L10.4362 2.22049C10.231 2.20165 10.0395 2.30137 9.93614 2.48013C9.83281 2.65889 9.84246 2.87441 9.9614 3.04352L10.3765 3.63357L9.9614 4.22362C9.84292 4.39181 9.83327 4.60734 9.93614 4.7861ZM10.8385 3.33166L10.4468 2.77469L11.1246 2.83581C11.3474 2.85603 11.5522 2.73747 11.6463 2.53436L11.9324 1.91628L12.2185 2.53436C12.3127 2.73747 12.5175 2.85557 12.7402 2.83581L13.4181 2.77469L13.0263 3.3312C12.8973 3.51455 12.8973 3.75076 13.0263 3.93411L13.4181 4.49107L12.7402 4.42995C12.5166 4.40973 12.3127 4.52829 12.2185 4.73141L11.9324 5.34949L11.6463 4.73141C11.5591 4.54346 11.3772 4.42812 11.1738 4.42812C11.1577 4.42812 11.1412 4.42903 11.1251 4.43041L10.4473 4.49153L10.839 3.93457C10.9671 3.75121 10.9671 3.51455 10.8385 3.33166Z" fill="#A0A0A0"/>
</svg>
