<svg width="375" height="173" viewBox="0 0 375 173" fill="none" xmlns="http://www.w3.org/2000/svg">
<path d="M353.176 130.687L353.114 130.926L353.267 131.121L356.97 135.833L350.909 137.193L330.1 132.217C337.892 118.141 347.358 109.582 358.47 106.42C358.774 106.67 358.94 106.943 359.027 107.231C359.133 107.585 359.131 108.003 359.044 108.491C358.958 108.979 358.795 109.501 358.61 110.057C358.584 110.137 358.556 110.218 358.529 110.3C358.371 110.771 358.206 111.265 358.086 111.744C358.086 111.745 358.086 111.746 358.086 111.746L353.176 130.687ZM309.421 234.706C304.848 225.693 299.311 217.204 292.907 209.387L313.103 181.403L313.179 181.298L313.194 181.17L312.698 181.11C313.194 181.17 313.194 181.169 313.194 181.169L313.194 181.169L313.194 181.167L313.195 181.158L313.2 181.124L313.216 180.987L313.281 180.439C313.339 179.951 313.425 179.221 313.54 178.246C313.771 176.298 314.115 173.375 314.572 169.478C315.474 161.776 316.815 150.269 318.581 134.957L363.254 144.849L363.369 144.874L363.484 144.846L381.15 140.409L381.443 140.336L381.514 140.043L387.484 115.543C387.887 114.921 388.203 114.785 388.402 114.788C388.632 114.792 388.998 114.977 389.488 115.64C396.645 125.551 400.58 134.558 401.356 142.67C402.129 150.734 399.785 157.952 394.301 164.351L337.126 196.441L337.03 196.495L336.966 196.585L309.421 234.706ZM351.509 163.91L351.511 163.905C352.001 161.927 351.7 159.836 350.672 158.078C349.644 156.319 347.971 155.031 346.008 154.49L346.008 154.49L346 154.488L332.346 150.951L332.345 150.951C330.368 150.442 328.269 150.736 326.507 151.768C324.745 152.8 323.461 154.487 322.934 156.462L322.934 156.464L321.257 162.879L321.256 162.881C320.749 164.861 321.042 166.961 322.073 168.725C323.104 170.489 324.789 171.774 326.762 172.301L326.763 172.302L340.418 175.899L340.424 175.9C342.4 176.391 344.49 176.09 346.247 175.061C348.004 174.032 349.29 172.356 349.83 170.392L349.831 170.392L349.832 170.385L351.509 163.91ZM332.454 155.876L343.23 158.677L343.228 158.692C344.297 158.983 345.212 159.676 345.782 160.627C346.35 161.575 346.531 162.705 346.288 163.783L345.153 167.909L345.153 167.909L345.15 167.921C345.019 168.449 344.785 168.945 344.461 169.382C344.138 169.819 343.731 170.187 343.264 170.465C342.797 170.744 342.28 170.927 341.742 171.004C341.205 171.081 340.658 171.05 340.133 170.915C340.132 170.915 340.132 170.914 340.131 170.914L329.295 168.038L329.293 168.037C328.235 167.76 327.327 167.076 326.767 166.135C326.207 165.194 326.039 164.071 326.298 163.007C326.298 163.006 326.298 163.005 326.299 163.004L327.373 158.82C327.374 158.819 327.374 158.818 327.374 158.817C327.663 157.756 328.358 156.852 329.309 156.301C330.26 155.75 331.39 155.597 332.454 155.875L332.454 155.876Z" stroke="#C7C7C7"/>
<mask id="path-2-inside-1_57_181" fill="white">
<path fill-rule="evenodd" clip-rule="evenodd" d="M284.491 200.355L286.886 199.875L284.551 198.076L285.03 195.798L287.845 195.199L285.509 193.4L285.988 191.122L288.803 190.523L286.467 188.724L286.886 186.446L289.761 185.847L287.425 184.048L287.845 181.77L290.659 181.17L288.324 179.372L288.803 177.094L291.617 176.494L289.282 174.696L289.761 172.418L292.575 171.878L290.24 170.02L290.659 167.741L293.474 167.202L291.198 165.343L291.617 163.125L294.432 162.526L292.096 160.667L292.575 158.449L295.39 157.85L293.055 155.991L293.534 153.773L296.348 153.174L294.013 151.375L294.432 149.097L297.247 148.497L294.911 146.699L295.39 144.421L298.205 143.821L295.869 142.023L296.348 139.745L299.163 139.145L296.828 137.347L297.247 135.068L300.121 134.469L297.786 132.67L298.205 130.392L301.02 129.793L298.684 127.994L299.163 125.716L301.978 125.117L299.642 123.318L300.121 121.04L302.936 120.441L300.6 118.642L301.02 116.364L303.834 115.824L301.499 113.966L301.978 111.688L304.792 111.148L302.457 109.29L302.936 107.072L305.751 106.472L303.415 104.614L303.894 102.395L306.709 101.796L304.373 99.9974L304.792 97.7193L307.607 97.1198L305.272 95.3213L305.751 93.0432L308.565 92.4437L306.23 90.6451L306.709 88.367L309.524 87.7675L307.188 85.969L307.607 83.6909L310.422 83.0914L308.146 81.2929L308.565 79.0147L311.38 78.4153L309.044 76.6168L309.524 74.3386L312.338 73.7392L310.003 71.9406L310.482 69.6625L313.296 69.0629L310.961 67.2645L311.38 64.9863L314.195 64.4468L311.859 62.5884L312.338 60.3102L315.153 59.7707L312.817 57.9122L313.296 55.6341L316.111 55.0946L313.775 53.236L314.255 51.0179L317.009 50.4184L314.734 48.6199L311.859 46.4617L282.335 46.8813C270.357 46.8813 273.172 45.8022 269.28 57.5525L232.988 166.902C252.441 174.052 270.042 185.484 284.491 200.355ZM275.628 54.4351C275.729 54.1206 275.892 53.8297 276.108 53.5798C276.323 53.3299 276.587 53.126 276.884 52.9805C277.18 52.835 277.502 52.7509 277.832 52.733C278.162 52.7151 278.491 52.7638 278.802 52.8763C279.116 52.9783 279.408 53.1414 279.66 53.3564C279.912 53.5714 280.119 53.8339 280.269 54.1291C280.419 54.4243 280.51 54.7462 280.535 55.0764C280.561 55.4067 280.521 55.7388 280.418 56.0537C280.201 56.6793 279.745 57.1937 279.151 57.4855C278.557 57.7773 277.872 57.8229 277.244 57.6125C276.93 57.5105 276.638 57.3474 276.386 57.1324C276.134 56.9174 275.928 56.6548 275.777 56.3597C275.627 56.0645 275.537 55.7426 275.511 55.4123C275.485 55.0821 275.525 54.75 275.628 54.4351Z"/>
</mask>
<path fill-rule="evenodd" clip-rule="evenodd" d="M284.491 200.355L286.886 199.875L284.551 198.076L285.03 195.798L287.845 195.199L285.509 193.4L285.988 191.122L288.803 190.523L286.467 188.724L286.886 186.446L289.761 185.847L287.425 184.048L287.845 181.77L290.659 181.17L288.324 179.372L288.803 177.094L291.617 176.494L289.282 174.696L289.761 172.418L292.575 171.878L290.24 170.02L290.659 167.741L293.474 167.202L291.198 165.343L291.617 163.125L294.432 162.526L292.096 160.667L292.575 158.449L295.39 157.85L293.055 155.991L293.534 153.773L296.348 153.174L294.013 151.375L294.432 149.097L297.247 148.497L294.911 146.699L295.39 144.421L298.205 143.821L295.869 142.023L296.348 139.745L299.163 139.145L296.828 137.347L297.247 135.068L300.121 134.469L297.786 132.67L298.205 130.392L301.02 129.793L298.684 127.994L299.163 125.716L301.978 125.117L299.642 123.318L300.121 121.04L302.936 120.441L300.6 118.642L301.02 116.364L303.834 115.824L301.499 113.966L301.978 111.688L304.792 111.148L302.457 109.29L302.936 107.072L305.751 106.472L303.415 104.614L303.894 102.395L306.709 101.796L304.373 99.9974L304.792 97.7193L307.607 97.1198L305.272 95.3213L305.751 93.0432L308.565 92.4437L306.23 90.6451L306.709 88.367L309.524 87.7675L307.188 85.969L307.607 83.6909L310.422 83.0914L308.146 81.2929L308.565 79.0147L311.38 78.4153L309.044 76.6168L309.524 74.3386L312.338 73.7392L310.003 71.9406L310.482 69.6625L313.296 69.0629L310.961 67.2645L311.38 64.9863L314.195 64.4468L311.859 62.5884L312.338 60.3102L315.153 59.7707L312.817 57.9122L313.296 55.6341L316.111 55.0946L313.775 53.236L314.255 51.0179L317.009 50.4184L314.734 48.6199L311.859 46.4617L282.335 46.8813C270.357 46.8813 273.172 45.8022 269.28 57.5525L232.988 166.902C252.441 174.052 270.042 185.484 284.491 200.355ZM275.628 54.4351C275.729 54.1206 275.892 53.8297 276.108 53.5798C276.323 53.3299 276.587 53.126 276.884 52.9805C277.18 52.835 277.502 52.7509 277.832 52.733C278.162 52.7151 278.491 52.7638 278.802 52.8763C279.116 52.9783 279.408 53.1414 279.66 53.3564C279.912 53.5714 280.119 53.8339 280.269 54.1291C280.419 54.4243 280.51 54.7462 280.535 55.0764C280.561 55.4067 280.521 55.7388 280.418 56.0537C280.201 56.6793 279.745 57.1937 279.151 57.4855C278.557 57.7773 277.872 57.8229 277.244 57.6125C276.93 57.5105 276.638 57.3474 276.386 57.1324C276.134 56.9174 275.928 56.6548 275.777 56.3597C275.627 56.0645 275.537 55.7426 275.511 55.4123C275.485 55.0821 275.525 54.75 275.628 54.4351Z" stroke="#C7C7C7" stroke-width="2" mask="url(#path-2-inside-1_57_181)"/>
<path d="M101.889 103.971L101.876 103.932L101.856 103.896C98.5695 97.8332 94.8603 94.9312 91.2173 92.4571C90.7607 92.147 90.3063 91.8442 89.8549 91.5434C86.7116 89.4489 83.7104 87.449 81.0433 83.7007L81.0433 83.7007L81.0394 83.6953C77.3301 78.6264 75.7149 73.2529 76.1637 67.5585C76.6097 61.8992 79.0982 55.8782 83.6824 49.49L85.3254 49.1526L86.4907 55.5966L87.5676 62.6043L87.5682 62.6084L88.7061 69.6226L88.752 69.9058L89.0197 70.009L95.5474 72.5269L95.5488 72.5275L102.136 75.0455L102.406 75.1487L102.631 74.9662L108.08 70.5298L108.082 70.5281L113.472 66.0917L113.692 65.9109L113.649 65.6297L112.571 58.6155L112.57 58.6114L111.433 51.6013L111.432 51.5972L110.307 44.2747L111.65 43.9896C116.033 46.202 119.734 49.565 122.358 53.7206C125.011 57.9222 126.461 62.7727 126.548 67.7426C126.409 73.5914 124.717 77.6133 123.108 81.4357C122.992 81.7118 122.876 81.987 122.762 82.2617C121.053 86.3526 119.584 90.3444 120.567 96.1245L120.573 96.1647L120.587 96.2033L143.954 164.119C137.509 166.121 131.216 168.582 125.123 171.484L101.889 103.971Z" stroke="#C7C7C7"/>
<path d="M76.9862 209.043L35.4483 158.432L35.2165 158.149L34.877 158.284C34.0465 158.615 33.1329 158.673 32.267 158.452C31.4012 158.23 30.6275 157.74 30.0571 157.051L30.0547 157.048C29.6905 156.615 29.4154 156.114 29.2451 155.574C29.0749 155.034 29.0129 154.466 29.0627 153.902C29.1126 153.338 29.2732 152.79 29.5355 152.288C29.7705 151.839 30.0828 151.435 30.4577 151.096H30.6302H31.5877L31.0405 150.31C30.4882 149.517 29.8688 148.773 29.1891 148.086L29.1739 148.07L29.1575 148.056C27.8442 146.94 26.233 146.233 24.523 146.023L24.523 146.023L24.5171 146.022C23.9242 145.956 23.3259 145.956 22.7331 146.022C18.8333 146.407 15.0086 149.709 11.2809 155.728L11.2081 155.845L11.206 155.983C11.118 161.648 9.50204 164.869 6.85929 167.652C5.52097 169.061 3.91405 170.364 2.07308 171.819C1.88417 171.969 1.69289 172.12 1.49933 172.272C-0.18145 173.598 -2.03402 175.06 -4.00071 176.825C-4.39712 177.114 -4.84621 177.322 -5.32269 177.438C-5.8067 177.556 -6.30932 177.576 -6.80117 177.497C-7.293 177.418 -7.76427 177.242 -8.18748 176.979C-8.6107 176.716 -8.97739 176.371 -9.26611 175.965L-9.28082 175.944L-9.29754 175.925L-27.9429 154.628C-28.3787 153.781 -28.5651 152.828 -28.4798 151.879C-28.3935 150.919 -28.0325 150.004 -27.4402 149.244C-19.9508 141.327 -13.883 135.538 -3.32348 136.764L-3.20317 136.778L-3.08981 136.735C1.14662 135.142 4.92046 132.519 7.8913 129.102L7.99504 128.982L8.01131 128.825C8.47166 124.375 9.69781 120.039 11.6353 116.009C23.1501 105.531 37.7163 99.022 53.198 97.4374C55.5574 97.2013 63.5214 97.0354 71.0162 97.6034C74.7641 97.8874 78.3661 98.353 81.0799 99.0755C82.4391 99.4374 83.5468 99.8564 84.333 100.332C85.1056 100.799 85.4876 101.27 85.5851 101.722C85.5767 102.102 85.4635 102.305 85.3207 102.426C85.1568 102.565 84.8613 102.674 84.3532 102.675C72.8446 102.465 62.0411 104.251 54.0992 109.31C46.1196 114.393 41.0895 122.743 41.0895 135.488V135.673L41.2097 135.813L44.0843 139.171L44.3921 139.53L44.768 139.242C45.6547 138.564 46.7681 138.252 47.8776 138.372C48.985 138.492 50.0045 139.033 50.7257 139.883C51.208 140.487 51.5259 141.205 51.6483 141.969C51.7711 142.735 51.6929 143.519 51.4216 144.246L51.3205 144.516L51.5046 144.739L91.9208 193.647C86.581 198.415 81.5899 203.56 76.9862 209.043Z" stroke="#C7C7C7"/>
<path d="M185.079 158.189H185.076C179.56 158.213 174.049 158.552 168.571 159.204V137.024C170.172 133.05 171.588 129.808 172.881 127.456L172.942 127.343V127.215V124.997V124.807L172.817 124.665C171.584 123.271 170.65 121.638 170.074 119.868C169.544 118.241 169.327 116.53 169.431 114.826H178.731H179.231V114.326V40.8862V40.7825L179.189 40.6875L175.476 32.1146L175.466 32.09L175.453 32.0668C175.086 31.4204 174.902 30.6869 174.918 29.9441L177.584 0.821639C178.121 0.610942 178.692 0.501572 179.27 0.5H187.471C188.028 0.506996 188.578 0.615361 189.095 0.818994L191.457 31.6274L187.615 40.3855L187.573 40.4815V40.5864V114.026V114.526H188.073H197.424C197.504 116.281 197.255 118.038 196.688 119.703C196.072 121.515 195.092 123.182 193.81 124.602L193.681 124.744V124.937V127.455V127.562L193.725 127.659L197.933 137.034V158.771C193.707 158.189 189.382 158.189 185.098 158.189H185.079Z" stroke="#C7C7C7"/>
</svg>
